<svg xmlns="http://www.w3.org/2000/svg" xmlns:xlink="http://www.w3.org/1999/xlink" xmlns:inkscape="http://www.inkscape.org/namespaces/inkscape" version="1.1" width="180" height="102" viewBox="0 0 180 102">
<defs>
<path id="font_1_105" d="M.33198548 .12385559V.18066406H.30699159V.12585449C.30699159 .052108766 .2769928 .014251709 .23999024 .014251709 .17298889 .014251709 .17298889 .10491943 .17298889 .12187195V.3996582H.31599427V.43066407H.17298889V.6142578H.147995C.14698792 .5324249 .116989139 .42565919 .018997193 .42166139V.3996582H.10398865V.12408447C.10398865 .0012512207 .19699097-.0107421879 .23298645-.0107421879 .3039856-.0107421879 .33198548 .060180665 .33198548 .12408447V.12385559Z"/>
<path id="font_1_109" d="M.5349884 0V.0309906C.46499635 .0309906 .45700074 .037994386 .45700074 .08705139V.4423828L.30999757 .43066407V.3996582C.37998963 .3996582 .3880005 .39266969 .3880005 .34373475V.16601563C.3880005 .07910156 .33999635 .011245728 .2669983 .011245728 .18299866 .011245728 .1789856 .058135988 .1789856 .11009216V.4423828L.03199768 .43066407V.3996582C.10998535 .3996582 .10998535 .39666749 .10998535 .3078003V.15802002C.10998535 .080093387 .10998535-.0107421879 .2619934-.0107421879 .31799317-.0107421879 .3619995 .017242432 .3909912 .07910156V-.0107421879L.5349884 0Z"/>
<path id="font_1_85" d="M.33099366-.2400055C.33099366-.23701477 .33099366-.23500061 .31399537-.21800232 .18899536-.0920105 .15699768 .09700012 .15699768 .25 .15699768 .42399598 .19499207 .59799197 .31799317 .72299197 .33099366 .7350006 .33099366 .7369995 .33099366 .73999026 .33099366 .746994 .32699586 .75 .32099916 .75 .31098939 .75 .22099304 .6819916 .1619873 .5549927 .11099243 .44499208 .09899902 .33399964 .09899902 .25 .09899902 .17199707 .10998535 .050994874 .16499329-.06201172 .22499085-.18501282 .31098939-.25 .32099916-.25 .32699586-.25 .33099366-.24700928 .33099366-.2400055Z"/>
<path id="font_1_64" d="M.27598573 .18710327V.24511719H.010986328V.18710327H.27598573Z"/>
<path id="font_1_28" d="M.48298646 .08912659V.14511109H.45799256V.08912659C.45799256 .03112793 .43299867 .025131226 .42199708 .025131226 .3889923 .025131226 .3849945 .070129398 .3849945 .07511902V.27508546C.3849945 .31707765 .3849945 .3560791 .34899903 .39312745 .30999757 .43223573 .2599945 .4482422 .21199036 .4482422 .12998963 .4482422 .06098938 .40115357 .06098938 .335083 .06098938 .30508424 .08099365 .28808595 .10699463 .28808595 .1349945 .28808595 .15299988 .30807496 .15299988 .33407594 .15299988 .3460846 .147995 .37908937 .101989749 .38008119 .1289978 .41519166 .17799378 .426239 .20999146 .426239 .25898744 .426239 .31599427 .38710023 .31599427 .29808045V.26107789C.2649994 .25808717 .19499207 .25508119 .13198853 .22509766 .056991579 .19110108 .03199768 .13911438 .03199768 .09512329 .03199768 .014251709 .1289978-.0107421879 .19198609-.0107421879 .2579956-.0107421879 .3039856 .029251099 .32299806 .07624817 .32699586 .036132814 .35398866-.005859375 .40098573-.005859375 .42199708-.005859375 .48298646 .008132935 .48298646 .08912659M.31599427 .14013672C.31599427 .04525757 .24398804 .011245728 .19898987 .011245728 .1499939 .011245728 .10899353 .04624939 .10899353 .09625244 .10899353 .15124512 .15098572 .23425293 .31599427 .24024964V.14013672Z"/>
<path id="font_1_86" d="M.2889862 .25C.2889862 .32798768 .27799989 .44898988 .22299195 .56199648 .16299439 .68499758 .07699585 .75 .066986087 .75 .06098938 .75 .056991579 .74598696 .056991579 .73999026 .056991579 .7369995 .056991579 .7350006 .07598877 .71699526 .17399597 .6179962 .23098755 .45899964 .23098755 .25 .23098755 .07899475 .19400025-.09700012 .069992069-.2230072 .056991579-.23500061 .056991579-.23701477 .056991579-.2400055 .056991579-.2460022 .06098938-.25 .066986087-.25 .07699585-.25 .16699219-.18200684 .22599793-.055007936 .2769928 .054992677 .2889862 .16600037 .2889862 .25Z"/>
<path id="font_1_82" d="M.4189911 0V.0309906H.3869934C.29699708 .0309906 .2939911 .041992189 .2939911 .07902527V.64012148C.2939911 .6640167 .2939911 .6660156 .2709961 .6660156 .20899964 .60227969 .12098694 .60227969 .08898926 .60227969V.57128909C.10899353 .57128909 .16799927 .57128909 .21998596 .5972748V.07902527C.21998596 .042999269 .21699524 .0309906 .1269989 .0309906H.09498596V0C.12998963 .0029907227 .21699524 .0029907227 .25698854 .0029907227 .29699708 .0029907227 .38398744 .0029907227 .4189911 0Z"/>
<path id="font_1_121" d="M.45999146 .31976319C.45999146 .39982606 .45498658 .47988893 .41999818 .5539398 .37399293 .65000918 .2919922 .6660156 .25 .6660156 .18998719 .6660156 .116989139 .64001467 .07598877 .54693606 .04399109 .47789 .038986207 .39982606 .038986207 .31976319 .038986207 .24472046 .042999269 .15464783 .083999637 .07859802 .1269989-.0024719239 .19999695-.022460938 .24899292-.022460938 .30299378-.022460938 .3789978-.0014648438 .4229889 .09359741 .45498658 .16265869 .45999146 .2407074 .45999146 .31976319M.3769989 .3317871C.3769989 .25672914 .3769989 .18867493 .3659973 .12461853 .35099793 .029556275 .2939911-.00047302247 .24899292-.00047302247 .20999146-.00047302247 .15098572 .024551392 .1329956 .12062073 .12199402 .18066406 .12199402 .2727356 .12199402 .3317871 .12199402 .39582826 .12199402 .46188355 .12998963 .5159149 .14898682 .63500979 .22399903 .64401248 .24899292 .64401248 .28199769 .64401248 .34799195 .6259918 .36698915 .52693179 .3769989 .47088624 .3769989 .39482118 .3769989 .3317871Z"/>
</defs>
<path transform="matrix(1,0,0,-1.00002,29.442002,72.09618)" stroke-width=".3985" stroke-linecap="butt" stroke-miterlimit="10" stroke-linejoin="miter" fill="none" stroke="#000000" d="M-28.3468 0H141.27576"/>
<path transform="matrix(1,0,0,-1.00002,170.71776,72.09618)" stroke-width=".31879" stroke-linecap="round" stroke-linejoin="round" fill="none" stroke="#000000" d="M-1.19551 1.59401C-1.09587 .99626 0 .09961 .29886 0 0-.09961-1.09587-.99626-1.19551-1.59401"/>
<use data-text="t" xlink:href="#font_1_105" transform="matrix(9.9626,0,0,-9.962799,174.696,75.10524)"/>
<path transform="matrix(1,0,0,-1.00002,29.442002,72.09618)" stroke-width=".3985" stroke-linecap="butt" stroke-miterlimit="10" stroke-linejoin="miter" fill="none" stroke="#000000" d="M0-28.3468V56.23534"/>
<path transform="matrix(0,-1.00002,-1,-0,29.442002,15.859718)" stroke-width=".31879" stroke-linecap="round" stroke-linejoin="round" fill="none" stroke="#000000" d="M-1.19551 1.59401C-1.09587 .99626 0 .09961 .29886 0 0-.09961-1.09587-.99626-1.19551-1.59401"/>
<use data-text="u" xlink:href="#font_1_109" transform="matrix(9.9626,0,0,-9.962799,13.391998,9.39093)"/>
<use data-text="(" xlink:href="#font_1_85" transform="matrix(9.9626,0,0,-9.962799,18.931206,9.39093)"/>
<use data-text="t" xlink:href="#font_1_105" transform="matrix(9.9626,0,0,-9.962799,22.806656,9.39093)"/>
<use data-text="-" xlink:href="#font_1_64" transform="matrix(9.9626,0,0,-9.962799,29.99965,9.39093)"/>
<use data-text="a" xlink:href="#font_1_28" transform="matrix(9.9626,0,0,-9.962799,36.63475,9.39093)"/>
<use data-text=")" xlink:href="#font_1_86" transform="matrix(9.9626,0,0,-9.962799,41.616044,9.39093)"/>
<path transform="matrix(1,0,0,-1.00002,29.442002,72.09618)" stroke-width=".3985" stroke-linecap="butt" stroke-miterlimit="10" stroke-linejoin="miter" fill="none" stroke="#0000ff" d="M0 0C0 0 2.56007 0 3.54333 0 4.5266 0 6.10342 0 7.08669 0 8.06995 0 9.64677 0 10.63004 0 11.6133 0 13.19012 0 14.17339 0 15.15665 0 16.73347 0 17.71674 0 18.70001 0 20.27682 0 21.2601 0 22.24336 0 23.82019 0 24.80345 0 25.78671 0 27.36354 0 28.3468 0 29.33006 0 30.90688 0 31.89014 0 32.8734 0 34.45023 0 35.43349 0 36.41676 0 37.99358 0 38.97685 0 39.96011 0 41.53694 0 42.5202 0 43.50346 0 45.08029 0 46.06355 0 47.04681 0 48.62364 0 49.6069 0 50.59016 0 52.16699 0 53.15025 0 54.13353 0 55.71034 0 56.69362 0 57.67688 0 59.2537 0 60.23695 0 61.22021 0 62.79704 0 63.7803 0 64.76357 0 66.3404 0 67.32365 0 68.30692 0 69.88374 0 70.867 0 71.85028 0 73.4271 0 74.41037 0 75.39363 0 76.97046 0 77.95372 0 78.93698 0 80.51381 0 81.49707 0 82.48033 0 85.04042 0 85.04042 0"/>
<path transform="matrix(1,0,0,-1.00002,29.442002,72.09618)" stroke-width=".3985" stroke-linecap="butt" stroke-miterlimit="10" stroke-linejoin="miter" fill="none" stroke="#0000ff" d="M85.04042 28.3468C85.04042 28.3468 86.74704 28.3468 87.40251 28.3468 88.05797 28.3468 89.10913 28.3468 89.76459 28.3468 90.42006 28.3468 91.47122 28.3468 92.1267 28.3468 92.78215 28.3468 93.83331 28.3468 94.48877 28.3468 95.14424 28.3468 96.1954 28.3468 96.85088 28.3468 97.50633 28.3468 98.5575 28.3468 99.21295 28.3468 99.86842 28.3468 100.91959 28.3468 101.57506 28.3468 102.23051 28.3468 103.28168 28.3468 103.93713 28.3468 104.5926 28.3468 105.64375 28.3468 106.29922 28.3468 106.95468 28.3468 108.00586 28.3468 108.66132 28.3468 109.31679 28.3468 110.36794 28.3468 111.0234 28.3468 111.67886 28.3468 112.73004 28.3468 113.3855 28.3468 114.04097 28.3468 115.09212 28.3468 115.74759 28.3468 116.40305 28.3468 117.45422 28.3468 118.10968 28.3468 118.76515 28.3468 119.8163 28.3468 120.47177 28.3468 121.12723 28.3468 122.17839 28.3468 122.83385 28.3468 123.48932 28.3468 124.54048 28.3468 125.19595 28.3468 125.85141 28.3468 126.90257 28.3468 127.55803 28.3468 128.21349 28.3468 129.26467 28.3468 129.92014 28.3468 130.57559 28.3468 131.62676 28.3468 132.28221 28.3468 132.93767 28.3468 133.98885 28.3468 134.64432 28.3468 135.29978 28.3468 136.35094 28.3468 137.0064 28.3468 137.66185 28.3468 138.71302 28.3468 139.36849 28.3468 140.02394 28.3468 141.73058 28.3468 141.73058 28.3468"/>
<path transform="matrix(1,0,0,-1.00002,29.442002,72.09618)" stroke-width=".3985" stroke-linecap="butt" stroke-dasharray="2.98883,2.98883" stroke-miterlimit="10" stroke-linejoin="miter" fill="none" stroke="#000000" d="M85.04042 0V28.3468"/>
<path transform="matrix(1,0,0,-1.00002,29.442002,72.09618)" d="M87.03297 0C87.03297 1.10046 86.1409 1.99255 85.04042 1.99255 83.93996 1.99255 83.04787 1.10046 83.04787 0 83.04787-1.10046 83.93996-1.99255 85.04042-1.99255 86.1409-1.99255 87.03297-1.10046 87.03297 0ZM85.04042 0" fill="#0000ff"/>
<path transform="matrix(1,0,0,-1.00002,29.442002,72.09618)" d="M87.03297 28.3468C87.03297 29.44728 86.1409 30.33936 85.04042 30.33936 83.93996 30.33936 83.04787 29.44728 83.04787 28.3468 83.04787 27.24634 83.93996 26.35425 85.04042 26.35425 86.1409 26.35425 87.03297 27.24634 87.03297 28.3468ZM85.04042 28.3468" fill="#0000ff"/>
<use data-text="a" xlink:href="#font_1_28" transform="matrix(9.9626,0,0,-9.962799,111.992008,79.94234)"/>
<use data-text="1" xlink:href="#font_1_82" transform="matrix(9.9626,0,0,-9.962799,21.281998,47.06668)"/>
<use data-text="0" xlink:href="#font_1_121" transform="matrix(9.9626,0,0,-9.962799,21.281998,75.304248)"/>
</svg>
